<svg width="30" height="29" viewBox="0 0 30 29" fill="none" xmlns="http://www.w3.org/2000/svg">
<g id="Layer_1_1_">
<path id="Vector" d="M15.6046 28.1772V15.1356L18.1982 17.7293L19.0525 16.875L15.0004 12.8229L10.9482 16.875L11.8025 17.7293L14.3962 15.1356V28.1772H15.6046Z" fill="black" stroke="black"/>
<path id="Vector_2" d="M24.6649 10.6104C24.6661 10.5699 24.6667 10.5294 24.6667 10.4895C24.6667 8.62267 23.2481 7.08083 21.432 6.88569C20.6103 3.34346 17.4735 0.822876 13.7917 0.822876C9.461 0.822876 5.9375 4.34638 5.9375 8.67704C5.9375 8.90904 5.94958 9.14527 5.97375 9.38996C2.85746 9.94942 0.5 12.7062 0.5 15.927C0.5 19.5913 3.48156 22.5729 7.14583 22.5729H11.9792V21.3645H7.14583C4.14796 21.3645 1.70833 18.9249 1.70833 15.927C1.70833 13.1171 3.90206 10.7385 6.70298 10.5125L7.36152 10.4593L7.24915 9.80804C7.17906 9.40144 7.14583 9.03109 7.14583 8.67704C7.14583 5.01277 10.1274 2.03121 13.7917 2.03121C17.0499 2.03121 19.8031 4.3645 20.3384 7.57927L20.426 8.1055L20.9589 8.08375C20.9964 8.08254 21.0338 8.07831 21.0417 8.07348C22.3745 8.07348 23.4583 9.15735 23.4583 10.4901C23.4583 10.6545 23.4396 10.8243 23.4034 10.9946L23.262 11.6568L23.9356 11.7226C26.4188 11.9655 28.2917 14.033 28.2917 16.5318C28.2917 19.1968 26.1233 21.3651 23.4583 21.3651H18.0208V22.5735H23.4583C26.7897 22.5735 29.5 19.8632 29.5 16.5318C29.5 13.6161 27.4609 11.171 24.6649 10.6104Z" fill="black" stroke="black"/>
</g>
</svg>
