<svg width="30" height="33" viewBox="0 0 30 33" fill="none" xmlns="http://www.w3.org/2000/svg">
<rect width="30" height="33" fill="#1E1E1E"/>
<g id="Desktop - V2 VERSION FINALE" clip-path="url(#clip0_0_1)">
<rect width="1440" height="2587" transform="translate(-761 -213)" fill="white"/>
<g id="Frame 7" filter="url(#filter0_d_0_1)">
<rect x="-49" y="-10" width="345" height="53" rx="16" fill="#9DC043"/>
<rect x="-47" y="-8" width="341" height="49" rx="14" stroke="black" stroke-width="4"/>
<g id="Layer_1_1_">
<path id="Vector" d="M14.4162 16.8159L14.3817 29.8574L11.7949 27.2569L10.9383 28.1089L14.9797 32.1718L19.0426 28.1304L18.1905 27.2738L15.59 29.8606L15.6245 16.8191L14.4162 16.8159Z" fill="black" stroke="black"/>
<path id="Vector_2" d="M24.6649 10.605C24.6661 10.5645 24.6667 10.524 24.6667 10.4842C24.6667 8.6173 23.2481 7.07546 21.432 6.88032C20.6103 3.33809 17.4735 0.817505 13.7917 0.817505C9.461 0.817505 5.9375 4.341 5.9375 8.67167C5.9375 8.90367 5.94958 9.1399 5.97375 9.38459C2.85746 9.94405 0.5 12.7009 0.5 15.9217C0.5 19.5859 3.48156 22.5675 7.14583 22.5675H11.9792V21.3592H7.14583C4.14796 21.3592 1.70833 18.9195 1.70833 15.9217C1.70833 13.1117 3.90206 10.7331 6.70298 10.5071L7.36152 10.454L7.24915 9.80267C7.17906 9.39607 7.14583 9.02571 7.14583 8.67167C7.14583 5.0074 10.1274 2.02584 13.7917 2.02584C17.0499 2.02584 19.8031 4.35913 20.3384 7.5739L20.426 8.10013L20.9589 8.07838C20.9964 8.07717 21.0338 8.07294 21.0417 8.06811C22.3745 8.06811 23.4583 9.15198 23.4583 10.4848C23.4583 10.6491 23.4396 10.8189 23.4034 10.9893L23.262 11.6514L23.9356 11.7173C26.4188 11.9602 28.2917 14.0276 28.2917 16.5264C28.2917 19.1914 26.1233 21.3598 23.4583 21.3598H18.0208V22.5681H23.4583C26.7897 22.5681 29.5 19.8578 29.5 16.5264C29.5 13.6107 27.4609 11.1657 24.6649 10.605Z" fill="black" stroke="black"/>
</g>
</g>
</g>
<defs>
<filter id="filter0_d_0_1" x="-53" y="-11" width="353" height="61" filterUnits="userSpaceOnUse" color-interpolation-filters="sRGB">
<feFlood flood-opacity="0" result="BackgroundImageFix"/>
<feColorMatrix in="SourceAlpha" type="matrix" values="0 0 0 0 0 0 0 0 0 0 0 0 0 0 0 0 0 0 127 0" result="hardAlpha"/>
<feOffset dy="3"/>
<feGaussianBlur stdDeviation="2"/>
<feComposite in2="hardAlpha" operator="out"/>
<feColorMatrix type="matrix" values="0 0 0 0 0 0 0 0 0 0 0 0 0 0 0 0 0 0 0.8 0"/>
<feBlend mode="normal" in2="BackgroundImageFix" result="effect1_dropShadow_0_1"/>
<feBlend mode="normal" in="SourceGraphic" in2="effect1_dropShadow_0_1" result="shape"/>
</filter>
<clipPath id="clip0_0_1">
<rect width="1440" height="2587" fill="white" transform="translate(-761 -213)"/>
</clipPath>
</defs>
</svg>
